# xmcd
#
# Track frame offsets:
#	150
#	25982
#	51148
#	79618
#
# Disc length: 1405
#
# Revision: 5
# Processed by: cddbd v1.5.1PL0 Copyright (c) Steve Scherf et al.
# Submitted via: CDex 1.51
# Normalized: r4:TRMNUM
#
DISCID=26057b04
DTITLE=Sowelu - beautiful dreamer
DYEAR=2002
DGENRE=JPop
TTITLE0=beautiful dreamer
TTITLE1=AFTER ALL
TTITLE2=beautiful dreamer (Tica's Dreamer In Love and Dub Remix)
TTITLE3=beautiful dreamer (LESS VOCAL)
EXTD=YEAR: 2002
EXTT0=
EXTT1=
EXTT2=
EXTT3=
PLAYORDER=
